<svg xmlns="http://www.w3.org/2000/svg" viewBox="0 0 64 64">
  <defs>
    <linearGradient id="g1" x1="0%" y1="0%" x2="100%" y2="100%">
      <stop offset="0%" stop-color="#7c3aed"/>
      <stop offset="100%" stop-color="#2563eb"/>
    </linearGradient>
  </defs>
  <!-- Background rounded square -->
  <rect width="64" height="64" rx="14" fill="url(#g1)"/>
  <!-- Neural network nodes -->
  <circle cx="12" cy="20" r="4" fill="white" opacity="0.9"/>
  <circle cx="12" cy="44" r="4" fill="white" opacity="0.9"/>
  <circle cx="32" cy="12" r="4" fill="white" opacity="0.9"/>
  <circle cx="32" cy="32" r="5" fill="white"/>
  <circle cx="32" cy="52" r="4" fill="white" opacity="0.9"/>
  <circle cx="52" cy="20" r="4" fill="white" opacity="0.9"/>
  <circle cx="52" cy="44" r="4" fill="white" opacity="0.9"/>
  <!-- Connections -->
  <line x1="12" y1="20" x2="32" y2="12" stroke="white" stroke-width="1.5" opacity="0.5"/>
  <line x1="12" y1="20" x2="32" y2="32" stroke="white" stroke-width="1.5" opacity="0.5"/>
  <line x1="12" y1="44" x2="32" y2="32" stroke="white" stroke-width="1.5" opacity="0.5"/>
  <line x1="12" y1="44" x2="32" y2="52" stroke="white" stroke-width="1.5" opacity="0.5"/>
  <line x1="32" y1="12" x2="52" y2="20" stroke="white" stroke-width="1.5" opacity="0.5"/>
  <line x1="32" y1="32" x2="52" y2="20" stroke="white" stroke-width="1.5" opacity="0.5"/>
  <line x1="32" y1="32" x2="52" y2="44" stroke="white" stroke-width="1.5" opacity="0.5"/>
  <line x1="32" y1="52" x2="52" y2="44" stroke="white" stroke-width="1.5" opacity="0.5"/>
  <line x1="32" y1="12" x2="32" y2="32" stroke="white" stroke-width="1.5" opacity="0.4"/>
  <line x1="32" y1="32" x2="32" y2="52" stroke="white" stroke-width="1.5" opacity="0.4"/>
</svg>
