<svg xmlns="http://www.w3.org/2000/svg" viewBox="0 0 192 192">
  <defs>
    <linearGradient id="g1" x1="0%" y1="0%" x2="100%" y2="100%">
      <stop offset="0%" stop-color="#7c3aed"/>
      <stop offset="100%" stop-color="#2563eb"/>
    </linearGradient>
  </defs>
  <rect width="192" height="192" rx="40" fill="url(#g1)"/>
  <!-- Nodes -->
  <circle cx="36" cy="60" r="12" fill="white" opacity="0.9"/>
  <circle cx="36" cy="132" r="12" fill="white" opacity="0.9"/>
  <circle cx="96" cy="36" r="12" fill="white" opacity="0.9"/>
  <circle cx="96" cy="96" r="16" fill="white"/>
  <circle cx="96" cy="156" r="12" fill="white" opacity="0.9"/>
  <circle cx="156" cy="60" r="12" fill="white" opacity="0.9"/>
  <circle cx="156" cy="132" r="12" fill="white" opacity="0.9"/>
  <!-- Connections -->
  <line x1="36" y1="60" x2="96" y2="36" stroke="white" stroke-width="4" opacity="0.4"/>
  <line x1="36" y1="60" x2="96" y2="96" stroke="white" stroke-width="4" opacity="0.4"/>
  <line x1="36" y1="132" x2="96" y2="96" stroke="white" stroke-width="4" opacity="0.4"/>
  <line x1="36" y1="132" x2="96" y2="156" stroke="white" stroke-width="4" opacity="0.4"/>
  <line x1="96" y1="36" x2="156" y2="60" stroke="white" stroke-width="4" opacity="0.4"/>
  <line x1="96" y1="96" x2="156" y2="60" stroke="white" stroke-width="4" opacity="0.4"/>
  <line x1="96" y1="96" x2="156" y2="132" stroke="white" stroke-width="4" opacity="0.4"/>
  <line x1="96" y1="156" x2="156" y2="132" stroke="white" stroke-width="4" opacity="0.4"/>
  <!-- ERA text -->
  <text x="96" y="104" font-family="system-ui,sans-serif" font-size="22" font-weight="800" fill="#1e1b4b" text-anchor="middle" dominant-baseline="middle">ERA</text>
</svg>
